<?xml version="1.0" encoding="utf-8"?>
<!-- Generator: Adobe Illustrator 22.0.1, SVG Export Plug-In . SVG Version: 6.00 Build 0)  -->
<svg version="1.1" id="svg2" xmlns:svg="http://www.w3.org/2000/svg"
	 xmlns="http://www.w3.org/2000/svg" xmlns:xlink="http://www.w3.org/1999/xlink" x="0px" y="0px" viewBox="0 0 645 585"
	 style="enable-background:new 0 0 645 585;" xml:space="preserve">
<style type="text/css">
	.st0{fill:#F44336;}
	.st1{fill:#FFFFFF;}
</style>
<g id="layer1">
	<g>
		<path id="path2417_8_" class="st0" d="M298,548.2c-13.8-15.4-48.2-45.5-76.4-66.9c-83.7-63.2-95.1-72.4-129.1-103.7
			C29.8,319.9,3.2,261.9,3.2,183.3c0-38.4,2.7-53.2,13.4-75.8c18.2-38.4,45.1-66.9,79.4-84.4C120.4,10.8,132.4,5.3,173,5.1
			c42.5-0.2,51.4,4.7,76.4,18.5c30.4,16.7,61.7,52.4,68.2,77.8l4,15.7l9.9-21.6c55.7-122,233.6-120.1,295.5,3
			c19.6,39.1,21.8,122.5,4.4,169.5c-22.7,61.3-65.4,108.1-164,179.7c-64.7,47-137.9,118-143,128C318.5,587.3,324.2,577.5,298,548.2z
			"/>
	</g>
</g>
<g>
	<path class="st1" d="M288.9,398.5"/>
	<path class="st1" d="M450.1,359.1c-3.9,3.9-9.4,5.9-14.8,5.9c-3.9,0-7.4-1-10.8-3c1.5,6.4-0.5,13.8-5.4,18.7
		c-3.9,3.9-9.4,5.9-14.8,5.9c-4.9,0-9.9-1.5-13.3-4.9c1,6.4-1,13.3-5.9,18.2c-3.9,3.9-9.4,5.9-14.8,5.9c-3.5,0-6.9-1-10.4-2.5
		c0,2.5-0.5,4.4-1.5,6.9c-1,2.5-2.5,4.9-4.9,7.4c-0.5,0.5-1,1-1.5,1c0,0,0,0-0.5,0c-3.5,3-8.4,4.9-13.3,4.9c-3.5,0-6.9-1-9.9-2.5
		l-6.9-4.9l16.3-20.2c14.8-18.2,4.9-35.5-6.9-45.4l0,0l0,0c-6.9-5.4-15.3-7.4-23.2-5.9c0-7.9-3-16.3-9.9-21.7l0,0l0,0
		c-6.9-5.4-15.3-7.4-23.2-5.9c0-7.9-3-16.3-9.9-21.7l0,0l0,0c-6.9-5.4-15.3-7.4-23.2-5.9c0-7.9-3-16.3-9.9-21.7l0,0l0,0
		c-14.3-12.8-31.1-17.3-45.8-1.5l-23.7,29.1c-0.5,0.5-0.5,0.5-1,1l-1-0.5c-1.5-1-2.5-2-3.5-3c-8.4-6.9-35.5-25.6-44.4-32.5
		c-3.9-3-4.9-6.9-3-11.3c7.9-17.3,16.3-34,24.2-50.8c3.9-8.9,8.4-17.7,12.3-27.1c1.5-3,3.5-4.9,5.4-5.4c2-0.5,4.4,0,6.9,1.5
		c6.4,4.4,20.2,13.8,34,20.7c9.4,4.4,18.2,7.4,25.1,7.9c3.5,0.5,9.4,0,15.3-0.5c3.9-0.5,8.4-1.5,12.3-3c0.5,0,1.5-0.5,2-0.5
		c2-0.5,3.9-1,5.9-2c0.5,0,0.5,0,1-0.5c0.5,0,1-0.5,2-0.5c8.4-2,17.3-3.9,25.6-5.4l-26.1,26.1c-1,1-1.5,2-2.5,2.5c-1,1-2,2.5-2.5,3
		l0,0c-3,3.9-4.9,8.9-5.9,13.8v0.5c-1.5,10.4,1.5,21.7,8.4,31.6c7.4,10.4,18.2,17.3,29.1,18.7c3.5,0.5,6.9,1,9.9,1
		c14.3,0,27.6-4.4,38.9-13.3c5.4-4.4,11.3-9.4,17.3-13.8c0,0,0,0,0.5-0.5c1.5-1.5,3-2.5,4.4-3.9c0,0,0.5,0,0.5-0.5c0,0,0,0,0.5-0.5
		c1.5,0,2.5,0,3.9,0.5c2,0.5,3.9,1,5.9,2.5c1.5,1,3,2,4.4,3.5l3,3l2,2l0.5,0.5l7.4,7.4l4.9,4.9l8.4,8.9l6.4,6.4c0.5,0.5,0.5,0.5,1,1
		l46.8,40.4C458,337.9,458,351.2,450.1,359.1z"/>
	<g>
		<path class="st1" d="M531.4,235.3c-8.4,6.9-41.4,32-49.8,39.4c-5.4,4.9-14.3,11.8-19.7,16.8c-1,1-1.5,1.5-2.5,2l0,0
			c-0.5,0.5-1,0.5-1.5,1c-1,0.5-1.5,0.5-2.5,0.5c-1,0-2.5-0.5-3.5-1l-11.8-11.3l0,0l0,0L412.6,257c-0.5-0.5-1-1-1.5-1.5
			c-0.5-0.5-1-1-1.5-1.5l-12.8-11.8c-3.5-3.5-6.9-6.9-10.8-10.4c-1.5-1-2.5-2.5-3.9-3.5l-0.5-0.5c-0.5-0.5-1-1-1.5-1.5
			c0,0,0,0-0.5,0c-3.5-2.5-7.4-4.4-11.3-5.4c-2-0.5-4.4-1-6.9-1c-0.5,0-1,0-1,0c-5.9,0-11.3,2-15.8,4.9l0,0c-1.5,1-3,2.5-4.4,3.9
			c0,0-0.5,0-0.5,0.5c-1.5,1.5-3.5,2.5-4.9,3.9c-5.9,4.9-11.8,9.4-16.8,13.8c-0.5,0.5-0.5,0.5-1,0.5c-6.9,4.9-14.3,7.4-22.2,7.4
			c-2,0-4.4,0-6.4-0.5c-8.4-1.5-17.7-12.8-16.3-21.2c0-1,1-2.5,1.5-3.5c0.5-0.5,0.5-0.5,1-1c0.5-0.5,1-1,1.5-1.5l2-2l24.7-24.7
			c0.5-0.5,1-1,1.5-1.5c0.5-0.5,1-1,1.5-1.5l26.6-26.6l0,0l6.9-6.9l1-0.5c3.5-3,7.4-3.9,13.3-3.9c7.9,0,16.8,3.5,25.6,6.4
			c5.9,2,11.8,3.9,17.7,5.4c7.4,2,15.3,3,23.2,3c1.5,0,3,0,4.4,0c17.7-1,48.3-23.7,58.2-31.1c2-1.5,3.9-2,5.4-2
			c1.5,0,2.5,0.5,3.9,1.5c0.5,0.5,0.5,0.5,1,1c1,1,1.5,2,2.5,3.5c4.4,8.9,8.9,17.7,13.3,26.6c8.9,16.8,17.7,33.5,26.1,50.3
			C536.4,228.4,535.4,232.4,531.4,235.3z"/>
	</g>
	<g>
		<g>
			<path class="st1" d="M220.9,306.3l-23.7,28.6l-0.5,0.5c-5.4,6.4-14.8,7.4-21.2,2c-0.5-0.5-1-1-1.5-1c-1-1-2-2.5-3-3.9
				c0-0.5-0.5-1-0.5-1.5c0-1-0.5-1.5-0.5-2.5c0-0.5,0-1,0-1c0-0.5,0-0.5,0-1V326c0,0,0-0.5,0-1c0-0.5,0-1,0-1.5c0-1,0.5-2,0.5-2.5
				c0.5-1,1-2,1.5-3c0-0.5,0.5-0.5,0.5-1c0,0,0-0.5,0.5-0.5l23.7-29.1c5.4-6.4,14.8-7.4,21.2-2l0,0c0.5,0.5,1,1,1.5,1
				c0.5,0,0.5,0.5,0.5,0.5c0.5,0.5,0.5,0.5,0.5,1c0.5,0.5,0.5,1,1,1.5c0,0.5,0.5,0.5,0.5,1c0.5,0.5,0.5,1,0.5,1.5
				c0,0.5,0.5,1,0.5,1.5C224.8,297.9,223.8,302.4,220.9,306.3z"/>
		</g>
		<g>
			<path class="st1" d="M253.9,333.9l-22.2,26.6l-2,2c-5.4,6.4-14.8,7.4-21.2,2l0,0c-0.5-0.5-1-1-1.5-1c-1-1-1.5-1.5-2-2.5
				c-0.5-1-1-2-1.5-3l0,0c0-0.5,0-1-0.5-1c0-0.5,0-1-0.5-1c0-0.5,0-1,0-1c0-0.5,0-1,0-1.5c0-0.5,0-1,0-1l0,0c0-0.5,0-0.5,0-1
				c0-1,0.5-1.5,0.5-2.5v-0.5c0.5-1.5,1.5-3,2.5-4.4l1-1l22.7-27.6c5.4-6.4,14.8-7.4,21.2-2l0,0c0.5,0.5,1,1,1,1l0,0
				c0.5,0.5,0.5,0.5,0.5,1c0.5,0.5,0.5,0.5,1,1c0.5,0.5,0.5,1,1,1.5c0.5,0.5,0.5,1.5,1,2.5c0,0.5,0.5,1,0.5,1.5
				C257.8,325.6,256.8,330.5,253.9,333.9z"/>
		</g>
		<g>
			<path class="st1" d="M290.4,352.7c0,0.5,0,1,0,1.5c0,0.5,0,1,0,1.5l0,0l0,0l0,0c0,0.5-0.5,1-0.5,2c0,0.5-0.5,1-0.5,1
				c-0.5,0.5-0.5,1-1,2c-0.5,0.5-1,1-1,1.5l-20.7,25.1l-3,3.9c-5.4,6.4-14.8,7.4-21.2,2l0,0c-0.5-0.5-1-1-1.5-1
				c-1.5-1.5-2.5-3.5-3.5-5.4c0-0.5-0.5-1-0.5-1.5c-1-4.4,0-8.9,3-12.8l2.5-3l21.7-26.1c5.4-6.4,14.8-7.4,21.2-2l0,0
				c0.5,0.5,1,1,1.5,1c0.5,0.5,0.5,1,1,1c0.5,0.5,0.5,1,1,1.5c0.5,1,1,2,1.5,3l0,0c0,0.5,0.5,1,0.5,1c0,0.5,0,1,0,1
				C290.4,350.7,290.4,351.7,290.4,352.7z"/>
		</g>
		<g>
			<path class="st1" d="M323.4,379.8L323.4,379.8c0,0.5,0,1,0,1.5c0,0.5,0,1,0,1.5l0,0l0,0l0,0c0,0.5-0.5,1-0.5,2c0,0.5-0.5,1-0.5,1
				c-0.5,0.5-0.5,1-1,1.5c-0.5,0.5-1,1-1,1.5l-18.7,23.2l-4.9,5.9c-5.4,6.4-14.8,7.4-21.2,2l0,0c-0.5-0.5-1-1-1.5-1
				s-0.5-0.5-0.5-0.5c0-0.5-0.5-0.5-0.5-1c-0.5-0.5-0.5-1-1-1.5c0-0.5-0.5-0.5-0.5-1c-0.5-0.5-0.5-1-0.5-1.5c0-0.5-0.5-1-0.5-1.5
				c-1-4.4,0-8.9,3-12.8l3.9-4.4l20.2-24.6c5.4-6.4,14.8-7.4,21.2-2l0,0c0.5,0.5,1,1,1.5,1c0.5,0.5,1,1,1,1.5c0.5,0.5,0.5,0.5,0.5,1
				c0,0.5,0.5,0.5,0.5,1c0,0,0,0,0,0.5l0,0l0,0c0,0.5,0.5,0.5,0.5,1c0,0.5,0.5,0.5,0.5,1l0,0c0,0.5,0.5,1,0.5,1c0,0.5,0,1,0,1
				C323.4,378.3,323.4,379.3,323.4,379.8z"/>
		</g>
	</g>
</g>
</svg>
